<?xml version="1.0" encoding="UTF-8"?>
<svg xmlns="http://www.w3.org/2000/svg" viewBox="0 0 260.32 239.54">
  <defs>
    <style>
      .cls-1, .cls-2, .cls-3 {
        fill: none;
        stroke: #fff;
        stroke-miterlimit: 10;
      }

      .cls-4 {
        font-family: SourceSansItalic-Semibold, 'Source Sans Variable';
        font-size: 35.71px;
        font-variation-settings: 'wght' 600;
        font-weight: 600;
        letter-spacing: -.02em;
      }

      .cls-4, .cls-5 {
        fill: #fff;
      }

      .cls-2 {
        stroke-width: .5px;
      }

      .cls-3 {
        stroke-width: .75px;
      }
    </style>
  </defs>
  <g id="Layer_2" data-name="Layer 2">
    <g>
      <circle class="cls-3" cx="122.14" cy="119.77" r="119.39"/>
      <g>
        <g>
          <g>
            <path class="cls-5" d="M46.43,89.16h-14.12v-12.55h51.65v12.55h-21.66v34.95h-15.88v-34.95Z"/>
            <path class="cls-5" d="M97.4,89.1v4.95h26.06v12.55h-26.06v5.02h35.49v12.49h-51.37v-47.5h41.94v12.49h-26.06Z"/>
            <rect class="cls-5" x="162.76" y="111.63" width="37.74" height="12.49"/>
          </g>
          <path class="cls-5" d="M217.53,76.61h-32.91v12.49h29.95v.07c1.48,0,2.56.75,2.56,2.37,0,1.48-1.08,2.5-2.56,2.51v.07h-29.95v30h15.88v-17.51h16.35c8.48,0,16.15-6.58,16.15-14.93,0-9.5-5.84-15.07-15.47-15.07Z"/>
          <path class="cls-5" d="M168.8,105.31c5.63-2.24,9.84-7.33,9.84-13.64,0-9.5-5.84-15.07-15.47-15.07h-33.59v12.49h30.61c1.49,0,2.58.75,2.58,2.44,0,1.56-1.09,2.58-2.58,2.58h-30.61v30h15.88v-17.58h7.46l10.04,17.58h17.24l-11.4-18.8Z"/>
        </g>
        <line class="cls-1" x1="259.97" y1="104.25" x2="259.7" y2="104.51"/>
      </g>
      <g>
        <circle class="cls-5" cx="240.63" cy="132.06" r="9.14"/>
        <line class="cls-2" x1="32.31" y1="132.06" x2="237.88" y2="132.06"/>
      </g>
      <text class="cls-4" transform="translate(44.52 162.49)"><tspan x="0" y="0">ON THE GO</tspan></text>
    </g>
  </g>
  <g id="bluelogo">
    <g>
      <circle class="cls-3" cx="122.14" cy="119.77" r="119.39"/>
      <g>
        <g>
          <g>
            <path class="cls-5" d="M46.43,89.16h-14.12v-12.55h51.65v12.55h-21.66v34.95h-15.88v-34.95Z"/>
            <path class="cls-5" d="M97.4,89.1v4.95h26.06v12.55h-26.06v5.02h35.49v12.49h-51.37v-47.5h41.94v12.49h-26.06Z"/>
            <rect class="cls-5" x="162.76" y="111.63" width="37.74" height="12.49"/>
          </g>
          <path class="cls-5" d="M217.53,76.61h-32.91v12.49h29.95v.07c1.48,0,2.56.75,2.56,2.37,0,1.48-1.08,2.5-2.56,2.51v.07h-29.95v30h15.88v-17.51h16.35c8.48,0,16.15-6.58,16.15-14.93,0-9.5-5.84-15.07-15.47-15.07Z"/>
          <path class="cls-5" d="M168.8,105.31c5.63-2.24,9.84-7.33,9.84-13.64,0-9.5-5.84-15.07-15.47-15.07h-33.59v12.49h30.61c1.49,0,2.58.75,2.58,2.44,0,1.56-1.09,2.58-2.58,2.58h-30.61v30h15.88v-17.58h7.46l10.04,17.58h17.24l-11.4-18.8Z"/>
        </g>
        <line class="cls-1" x1="259.97" y1="104.25" x2="259.7" y2="104.51"/>
      </g>
      <g>
        <circle class="cls-5" cx="240.63" cy="132.06" r="9.14"/>
        <line class="cls-2" x1="32.31" y1="132.06" x2="237.88" y2="132.06"/>
      </g>
      <text class="cls-4" transform="translate(44.52 162.49)"><tspan x="0" y="0">ON THE GO</tspan></text>
    </g>
  </g>
</svg>